<svg xmlns="http://www.w3.org/2000/svg" xmlns:xlink="http://www.w3.org/1999/xlink" width="567" zoomAndPan="magnify" viewBox="0 0 425.25 283.500005" height="378" preserveAspectRatio="xMidYMid meet" version="1.0"><defs><g/></defs><g fill="#5ce1e6" fill-opacity="1"><g transform="translate(7.574551, 172.214676)"><g><path d="M 29.140625 -30.984375 L 51.234375 0 L 41.828125 0 L 23.9375 -25.671875 L 14.3125 -16.15625 L 14.3125 0 L 6.640625 0 L 6.640625 -71.578125 L 14.3125 -71.578125 L 14.3125 -25.765625 L 38.96875 -51.125 L 49.703125 -51.125 Z M 29.140625 -30.984375 "/></g></g></g><g fill="#5ce1e6" fill-opacity="1"><g transform="translate(58.913481, 172.214676)"><g><path d="M 46.53125 -8.1875 C 42.4375 -2.1875 36.332031 0.8125 28.21875 0.8125 C 20.863281 0.8125 14.863281 -1.742188 10.21875 -6.859375 C 5.726562 -11.898438 3.484375 -18.132812 3.484375 -25.5625 C 3.484375 -33 5.726562 -39.238281 10.21875 -44.28125 C 14.863281 -49.394531 21.035156 -51.953125 28.734375 -51.953125 C 36.441406 -51.953125 42.375 -48.914062 46.53125 -42.84375 L 46.53125 -51.125 L 54.203125 -51.125 L 54.203125 0 L 46.53125 0 Z M 29.25 -6.140625 C 34.769531 -6.140625 39.132812 -8.046875 42.34375 -11.859375 C 45.40625 -15.472656 46.9375 -20.039062 46.9375 -25.5625 C 46.9375 -31.082031 45.40625 -35.648438 42.34375 -39.265625 C 39.132812 -43.085938 34.769531 -45 29.25 -45 C 23.789062 -45 19.359375 -43.085938 15.953125 -39.265625 C 12.742188 -35.648438 11.140625 -31.082031 11.140625 -25.5625 C 11.140625 -20.039062 12.742188 -15.472656 15.953125 -11.859375 C 19.359375 -8.046875 23.789062 -6.140625 29.25 -6.140625 Z M 29.25 -6.140625 "/></g></g></g><g fill="#5ce1e6" fill-opacity="1"><g transform="translate(119.763404, 172.214676)"><g><path d="M 46.53125 -8.1875 C 42.4375 -2.1875 36.332031 0.8125 28.21875 0.8125 C 20.863281 0.8125 14.863281 -1.742188 10.21875 -6.859375 C 5.726562 -11.898438 3.484375 -18.132812 3.484375 -25.5625 C 3.484375 -33 5.726562 -39.238281 10.21875 -44.28125 C 14.863281 -49.394531 21.035156 -51.953125 28.734375 -51.953125 C 36.441406 -51.953125 42.375 -48.914062 46.53125 -42.84375 L 46.53125 -51.125 L 54.203125 -51.125 L 54.203125 0 L 46.53125 0 Z M 29.25 -6.140625 C 34.769531 -6.140625 39.132812 -8.046875 42.34375 -11.859375 C 45.40625 -15.472656 46.9375 -20.039062 46.9375 -25.5625 C 46.9375 -31.082031 45.40625 -35.648438 42.34375 -39.265625 C 39.132812 -43.085938 34.769531 -45 29.25 -45 C 23.789062 -45 19.359375 -43.085938 15.953125 -39.265625 C 12.742188 -35.648438 11.140625 -31.082031 11.140625 -25.5625 C 11.140625 -20.039062 12.742188 -15.472656 15.953125 -11.859375 C 19.359375 -8.046875 23.789062 -6.140625 29.25 -6.140625 Z M 29.25 -6.140625 "/></g></g></g><g fill="#5ce1e6" fill-opacity="1"><g transform="translate(180.613321, 172.214676)"><g><path d="M 14.3125 -43.359375 C 17.726562 -49.085938 22.910156 -51.953125 29.859375 -51.953125 C 33.265625 -51.953125 36.414062 -51.046875 39.3125 -49.234375 C 42.21875 -47.429688 44.488281 -44.894531 46.125 -41.625 C 48.4375 -45.914062 52.050781 -48.984375 56.96875 -50.828125 C 58.9375 -51.578125 61.164062 -51.953125 63.65625 -51.953125 C 66.144531 -51.953125 68.53125 -51.457031 70.8125 -50.46875 C 73.101562 -49.476562 75.132812 -48.0625 76.90625 -46.21875 C 80.71875 -42.132812 82.625 -37.023438 82.625 -30.890625 L 82.625 0 L 74.953125 0 L 74.953125 -30.671875 C 74.953125 -34.898438 73.757812 -38.378906 71.375 -41.109375 C 68.988281 -43.703125 65.957031 -45 62.28125 -45 C 58.394531 -45 55.15625 -43.738281 52.5625 -41.21875 C 49.832031 -38.625 48.46875 -35.078125 48.46875 -30.578125 L 48.46875 0 L 40.796875 0 L 40.796875 -30.671875 C 40.796875 -34.898438 39.601562 -38.378906 37.21875 -41.109375 C 34.832031 -43.703125 31.800781 -45 28.125 -45 C 24.238281 -45 21 -43.738281 18.40625 -41.21875 C 15.675781 -38.625 14.3125 -35.078125 14.3125 -30.578125 L 14.3125 0 L 6.640625 0 L 6.640625 -51.125 L 14.3125 -51.125 Z M 14.3125 -43.359375 "/></g></g></g><g fill="#000000" fill-opacity="1"><g transform="translate(269.387937, 172.214676)"><g><path d="M 29.140625 -30.984375 L 51.234375 0 L 41.828125 0 L 23.9375 -25.671875 L 14.3125 -16.15625 L 14.3125 0 L 6.640625 0 L 6.640625 -71.578125 L 14.3125 -71.578125 L 14.3125 -25.765625 L 38.96875 -51.125 L 49.703125 -51.125 Z M 29.140625 -30.984375 "/></g></g></g><g fill="#000000" fill-opacity="1"><g transform="translate(320.726866, 172.214676)"><g><path d="M 46.53125 -8.1875 C 42.4375 -2.1875 36.332031 0.8125 28.21875 0.8125 C 20.863281 0.8125 14.863281 -1.742188 10.21875 -6.859375 C 5.726562 -11.898438 3.484375 -18.132812 3.484375 -25.5625 C 3.484375 -33 5.726562 -39.238281 10.21875 -44.28125 C 14.863281 -49.394531 21.035156 -51.953125 28.734375 -51.953125 C 36.441406 -51.953125 42.375 -48.914062 46.53125 -42.84375 L 46.53125 -51.125 L 54.203125 -51.125 L 54.203125 0 L 46.53125 0 Z M 29.25 -6.140625 C 34.769531 -6.140625 39.132812 -8.046875 42.34375 -11.859375 C 45.40625 -15.472656 46.9375 -20.039062 46.9375 -25.5625 C 46.9375 -31.082031 45.40625 -35.648438 42.34375 -39.265625 C 39.132812 -43.085938 34.769531 -45 29.25 -45 C 23.789062 -45 19.359375 -43.085938 15.953125 -39.265625 C 12.742188 -35.648438 11.140625 -31.082031 11.140625 -25.5625 C 11.140625 -20.039062 12.742188 -15.472656 15.953125 -11.859375 C 19.359375 -8.046875 23.789062 -6.140625 29.25 -6.140625 Z M 29.25 -6.140625 "/></g></g></g><g fill="#000000" fill-opacity="1"><g transform="translate(381.57679, 172.214676)"><g><path d="M 33.640625 -51.953125 L 33.640625 -44.28125 L 32.71875 -44.28125 C 27.195312 -44.28125 22.695312 -42.066406 19.21875 -37.640625 C 15.945312 -33.410156 14.3125 -28.363281 14.3125 -22.5 L 14.3125 0 L 6.640625 0 L 6.640625 -51.125 L 14.3125 -51.125 L 14.3125 -38.546875 C 15.945312 -43.867188 19.492188 -47.789062 24.953125 -50.3125 C 27.203125 -51.40625 29.929688 -51.953125 33.140625 -51.953125 Z M 33.640625 -51.953125 "/></g></g></g></svg>